<svg xmlns="http://www.w3.org/2000/svg" width="490" height="389">
  <defs>
    <linearGradient id="a" x1="0%" x2="0%" y1="0%" y2="100%">
      <stop offset="0%" stop-color="#40E0D0"/>
      <stop offset="100%" stop-color="#6495ED"/>
    </linearGradient>
    <linearGradient id="b" x1="0%" x2="0%" y1="0%" y2="100%">
      <stop offset="0%" stop-color="#FFF382"/>
      <stop offset="100%" stop-color="#FF69B4"/>
    </linearGradient>
  </defs>
  <g fill="none">
    <path fill="url(#a)" d="M364.467 1.545c-6.8 2.065-9.196 3.602-8.664 5.555.323 1.183-.236 1.883-1.836 2.3-1.438.375-2.72 1.8-3.42 3.8-1.435 4.1-1.374 4.8.42 4.8 1.4 0 7.5 5.287 7.5 6.5 0 .283-1 .5-2.3.5-2.33 0-6.558 3.8-8.567 7.7-1.057 2.053-.933 2.173 1.867 1.8 2.6-.347 3-.073 3 2.05 0 2.153-.4 2.393-3.3 1.98-7.2-1.022-23.604-.556-30.3.862-8 1.695-18.697 5.51-24.5 8.738-3.5 1.947-3.72 2.293-2.15 3.37.944.648 3.2 1.683 4.9 2.25 2.6.867 3.43.77 4.75-.55 1.506-1.506 1.674-1.5 2.85.1.682.927 2.5 1.927 4 2.2 1.5.273 3.886.703 5.25.946 2.846.51 3.6.933 9.2 5.173 2.8 2.12 4.967 3.04 6.5 2.78 2.1-.37 2.126-.33.3.45-1.1.46-2.315.69-2.7.5-.42-.21-.946.05-1.315.65-.596.96.715 1.38 3.315 1.06.722-.09 1.167.63 1 1.63-.245 1.46.4 1.81 3.5 1.9 5.2.13 6.898 2.01 3.1 3.42-1.643.61-4.2 1.53-5.9 2.13-1.7.59-4.3 1.61-6 2.35-1.642.71-5.4 2.25-8.3 3.4-11.825 4.68-21.7 11.17-35.4 23.26-5.8 5.11-6.45 6.06-6.026 8.73.64 4.01 1.43 4.39 6.23 2.98 2.8-.83 4.65-2.22 6.15-4.63 1.81-2.9 2.57-3.35 4.75-2.79 3.4.86 3.89 1.48 2 2.54-3.7 2.08-6.44 5.11-5.1 5.64.87.34-.5 1.82-3.6 3.9-3.3 2.21-6.23 5.4-8.65 9.4-3.38 5.6-3.55 6.25-2.31 8.85 2.07 4.33 7.56 4.19 18.26-.46 6.8-2.96 9.06-4.49 10.8-7.29 1.74-2.8 2.28-3.16 2.55-1.7.21 1.08-1.01 3.25-2.95 5.25-2.91 3-3.06 3.4-1.3 3.4 3.65 0 3.3 1-2 5.83-10.2 9.3-14.43 14.15-15.6 17.86-.66 2.1-1.57 4.2-2.03 4.7-1.38 1.48-1.06 4.63.54 5.25.77.29 4.5-1.06 8.2-2.96 3.7-1.91 8.17-3.79 9.8-4.14 6.4-1.36 8.45-2.81 11.41-8.06 1.64-2.9 3.56-5.66 4.24-6.1.69-.44.35.5-.76 2.1-4.8 6.9-11.89 22.79-10.88 24.4.29.45 1.66.58 3.16.3 2.3-.44 2.58-.21 2.09 1.7-.62 2.45 1.66 4.1 5.66 4.1 2 0 2.68.65 3.4 3.25.5 1.8 1.44 3.13 2.1 2.98 3.43-.77 14.7-9.17 24.3-18.13 3.2-2.98 5.81-5.07 5.7-4.55-.11.52.52 2.6 1.4 4.6.87 1.98 1.9 5.5 2.25 7.7.64 4 .68 4.03 3 2.5 2.2-1.45 2.39-1.4 2.95.8.34 1.33.73 3.65.9 5.35.25 2.5.73 2.99 2.85 2.95 1.8-.04 2.39.36 2 1.35-.31.8-.03 1.72.65 2.15.86.53.02 2.45-2.9 6.65-3.89 5.6-3.99 5.92-1.95 6.25 1.7.27 2.02.85 1.54 2.75-.63 2.5.05 2.9 2.41 1.39.99-.63 1.75-.398 2.6.802 1.12 1.59 1.45 1.55 5.05-.6 2.13-1.27 6.2-3.49 9.1-4.95 2.9-1.468 5.5-3.46 5.8-4.45.44-1.42.95-1.59 2.45-.8 1.4.733 2.13.59 2.75-.55.59-1.068 2.94 6.85 7.5 25.25 3.65 14.7 9.2 35.6 12.29 46.3 6.01 20.8 8.46 29.55 8.96 32.1 2.16 11 2.76 55.6.83 62L421 387h19c.54 0-2.329-13.559-2.959-26.559-.29-6.03-.773-16.2-1.07-22.5-1.09-23.3-3.38-37.87-8.96-57-.87-3-1.782-6.186-2-7-.22-.82-1.13-4-2-7-.87-3-2.236-7.777-3-10.5-.77-2.748-3.882-13.8-6.9-24.5-3.02-10.7-6.425-23.11-7.55-27.5-1.13-4.4-2.3-8.79-2.6-9.75-.42-1.34 0-1.75 1.8-1.75 1.32 0 3.556-1.25 5.1-2.85 1.93-2 3.45-2.72 5.1-2.4 1.82.344 2.764-.25 4.184-2.65 2.07-3.5 2.61-3.7 4.335-1.6 1.04 1.27 1.67.9 4.08-2.4 1.54-2.1 3.34-4.2 3.9-4.55.6-.37.86-.997.6-1.45-.25-.45-.06-2.3.43-4.2 3.19-12.3 3.04-28.8-.44-48.7-.4-2.3-.69-4.498-.63-4.85.053-.357 2.45-.65 5.25-.65h5.15l2.27 4.8c2.834 6 3.09 6.22 7.93 6.92 8.4 1.217 9.623 1.71 10.573 4.276.78 2.12 1.375 2.414 3.875 1.95 2.43-.455 3.55.013 6.35 2.65 1.9 1.79 4.52 4.85 5.95 6.95l2.55 3.75 1.4-2.25c.745-1.2 1.725-3.115 2.1-4.1.453-1.2 1.4-1.677 2.7-1.35 1.2.3 2 .02 2-.7 0-1.34-10.1-21.6-11.86-23.8-.58-.72-3.41-4.2-6.34-7.8-2.94-3.6-7.13-8.956-9.4-12C452.9 83.86 441.1 74.612 427.5 68.99c-7-2.897-8.63-3.95-7.95-5.14.45-.8.45-2.154 0-2.9-.55-.904-.03-2.5 1.47-4.5 5.31-7.1 8.1-14.715 7.62-20.8-.2-2.575-3.847-5.7-6.647-5.7-2 0-2.5.5-2.5 2.5 0 1.5-.58 2.5-1.45 2.5-.842 0-1.806.65-2.3 1.55-.65 1.18-1.433.05-3.3-4.75-1.99-5.115-4.05-7.9-10.95-14.8-4.7-4.7-10.065-9.306-12-10.3-1.9-.98-4.643-2.487-6-3.3-1.39-.834-3.7-1.345-5.2-1.15-1.5.193-2.615-.095-2.51-.65.303-1.574-6.19-1.605-11.29-.056l-.026.051zM388.477 91c-.53 1-1.53 2.208-2.11 2.55-.592.35-.313-.55.605-1.95 1.967-3 3.003-3.412 1.506-.6h-.001zm43.59 19.7c-.32.8-.6 2.013-.6 2.6 0 1.94-1.717-.6-2.432-3.6-.62-2.6-.514-2.718 1.482-1.65 1.3.695 1.913 1.743 1.55 2.65zm-21.6 58c0 .816-1.368 4.6-3 8.3-1.632 3.7-2.726 7.484-2.4 8.3.337.842-.058 2.75-.9 4.35l-1.5 2.85-.698-2.7c-.81-3.1-.81-3.1 2.96-13.8 1.44-4.1 2.83-8.09 3.08-8.8.56-1.655 2.45-.5 2.45 1.5h.008z"/>
    <path fill="url(#b)" d="M176.4 24.91c-1.486.365-5.392 3.7-8.9 7.6-5.575 6.2-6.605 6.922-9.55 6.686-3.7-.296-7.818 1.476-6.89 2.964.812 1.3 1.334 11.887.59 11.977-6.7.814-7.445 1.61-6.3 6.723 1.19 5.308.4 4.95-9.3-4.223-13.1-12.386-15.43-14.07-17.6-12.72-1.8 1.12-1.893 1.043-.938-.757 1.195-2.25.04-3.247-5.16-4.452-2.3-.532-2.953-.255-3.65 1.552-.745 1.925-.93 1.7-1.476-1.8-.773-4.945-2.875-6.103-17.975-9.904-10.6-2.667-12.7-2.667-12.7.004 0 .77-1.8 1.94-4 2.6-2.9.87-4.17 1.86-4.61 3.6-.78 3.024.02 3.8 3.92 3.8 2.85 0 3.34.45 4.5 4.15 1.25 4 1.45 4.145 5.4 4 4.01-.147 4.13-.05 5.53 4.15 1.74 5.2 3.35 5.947 8.07 3.734l3.7-1.734-2.7 2.85c-2.36 2.5-2.51 2.973-1.15 3.85 1.1.706-.45.965-5.25.882-12.6-.22-29.9 2.966-40.5 7.454l-4.4 1.864 10.4 1.4-2.85 2.9c-2.07 2.11-6.45 4.114-16.05 7.35-7.3 2.46-13.58 4.83-14.05 5.3-.47.476.8 2.456 2.9 4.5 3.7 3.603 3.8 3.632 7.6 2.3 2.5-.877 3.47-.964 2.75-.25-2.75 2.755-.7 2.45 5.3-.787s8.7-3.435 5-.368c-2.66 2.21-.7 2.23 2.1.02 3.41-2.685 4.01-2.065 1.99 2.035-.89 1.8-1.45 3.353-1.28 3.55.17.196 1.8-.08 3.7-.62 4.2-1.2 4.53-.886 2.02 1.97-1.14 1.3-2.02 2.474-2.02 2.7 0 .6 9.1-4.63 11.2-6.437.9-.775 2.24-1.11 2.85-.713.66.43 2.11-.45 3.38-2.05 2.49-3.134 4.02-2.8 5.02 1.1.84 3.26-.04 3.922-7.44 5.567-6.1 1.355-5.96 1.32-8 2.076-.81.304-4.5 1.524-8.1 2.684-14.4 4.64-26.37 12.166-40.7 25.588C1.15 138.568-.45 141.108.1 146.46c.52 5.1 1.113 5.473 1.91 1.2.35-1.9 1.034-3.75 1.5-4.05.46-.3.484 1.05.06 2.95-1 4.424.47 3.7 2.024-1 .63-1.9 1.6-3.5 2.11-3.5.57 0 .71.4.35 1-.34.57-.17 1.75.4 2.75.88 1.54 1.02 1.45 1.12-.75.25-5.2 1.43-8.992 2.45-7.9.36.385 1.35 7.4 1.61 11.4.07 1.1 1.17-1.6 2.43-6 2.19-7.6 2.31-7.785 2.39-3.7.09 4.1 2.11 6.304 2.11 2.3 0-3.1 1.87-3.53 2.61-.6.92 3.644 2.08 2 2.74-3.9.306-2.7.778-5.124 1.05-5.4.5-.496.985 4.9.66 7.3-.14 1.04 2.217-1.5 5.2-5.6l1.745-2.4-.35 4.25c-.19 2.3-.19 4.25 0 4.25s1.46-2.5 2.8-5.5c1.33-3 2.72-5.5 3.05-5.5.34 0 .32.45-.05 1.05-.37.588-.77 2.15-.92 3.55-.37 3.45 1.46 1.5 3.66-3.9l1.7-4.2.05 4.25c.03 2.3.28 4.25.55 4.25s2.42-2.1 4.7-4.6l4.2-4.6 2.9 8.5 1.75-3.4c.98-1.9 3.03-4.613 4.65-6.15l2.9-2.75-.4 3.5c-.22 1.9-.17 3.5.1 3.5.28 0 2-2.5 3.85-5.6l3.35-5.6 1 10.7 2.28-4.8c2.51-5.3 3.54-6.082 2.64-2l-.62 2.8 2.1-2.5c1.17-1.4 2.36-3.292 2.7-4.3 1.01-3.034 2.17-1.9 2.86 2.8.76 5.2 2.07 5.843 3.06 1.5.38-1.7.98-3 1.37-3 .39 0 1.3-1.45 2.05-3.25l1.35-3.25.8 5.4 3.09-3.5c3.002-3.4 5.303-3.79 4.12-.7-.42 1.1-.24 1.37.583.865 1.75-1.075 2.45 1.935 1.07 4.635-.644 1.26-2.574 3.548-4.274 5.064-28.7 25.59-44.38 44.594-51.67 62.636-5.866 14.5-7.295 23.028-4.828 28.8 1.153 2.7 1.21 2.718 1.6.5.33-1.9.64-2.1 1.8-1.15 1.183.974 1.41.1 1.45-5.7.04-5.7.24-6.464 1.18-4.55 1.515 3.072 2.51 2.8 3.305-.9l.664-3.1 2.2 2.088c3.1 2.94 3.52 2.712 2.577-1.388-.99-4.3-.06-5.104 2.83-2.45 2.594 2.38 2.81 1.05.55-3.35l-1.65-3.2 5.3 4.8.1-5.8 2.25 2.75c1.227 1.5 2.477 2.75 2.75 2.75.63 0 .274-6.4-.54-9.6l-.66-2.6 3.75 2.85c3.6 2.736 3.68 2.75 2.02.35-2.42-3.5-2.16-6.162.31-3.2 2.73 3.267 3.297 2.8 2.79-2.3-.48-4.9.1-5.57 2.08-2.4.69 1.1 1.727 1.707 2.3 1.35.77-.473.75-.95-.05-1.75-.6-.6-1.1-1.577-1.1-2.15 0-.57.85.05 1.85 1.35 1.83 2.368 1.81 2.5-1.6 9.9-3.4 7.4-3.42 7.525-1.55 9.4 1.61 1.608 1.79 2.7 1.15 7.1-.413 2.9-.723 7.412-.7 10.2.05 4.8.1 4.888 1.25 2.2l1.2-2.8 1.2 2.6c.65 1.4 1.2 3.154 1.2 3.8 0 .662.43 1.85.95 2.65.78 1.184 1.31 1 2.9-1l1.95-2.45 1.21 3c1.24 3.077 1.34 3 2.5-2l.694-3 1.35 2.5c.76 1.4 1.38 3.16 1.41 4 .09 2.4 1.508 4.054 3.845 4.49 1.81.338 2.2-.04 2.2-2.14 0-2.2.333-2.488 2.45-2.1 1.99.366 2.643-.1 3.5-2.5.57-1.6 1.96-3.18 3.05-3.45 2.49-.622 2.52-1.1.32-4.3l-1.72-2.5 3.6 2.15c2.6 1.553 3.9 1.844 4.7 1.05.79-.79 1.44-.2 2.32 2.1 1.374 3.6 2.46 4.153 2.95 1.5.23-1.264 1.15-.4 3.08 2.9 1.52 2.6 2.75 5.19 2.75 5.8 0 2.41 1.923.7 2.59-2.3l.71-3.2 1.6 2.45c.85 1.3 2.37 3.412 3.25 4.5 1.6 1.99 1.65 1.95 1.65-1.45 0-1.9.04-4.597.1-5.9.1-2.516-.13-2.7 4.793 3.8.184.24.505.2.805-.1.276-.276-.39-3.1-1.49-6.3-2.51-7.3-2.51-7.3.19-4.96 2.3 1.993 8.08 5.46 9.1 5.46.33 0-.5-2.95-1.85-6.55-2.13-5.7-2.22-6.427-.7-5.6.96.52 3.65 1.267 5.95 1.65l4.2.7-1.35-5.65c-1.17-4.9-1.15-5.577.15-5.1.8.293 1.69.55 1.9.55.222 0 .4 2.9.4 6.5v6.5h6l-2.02 4c-2.48 4.9-2.48 4.9.52 4.562 2.3-.26 4.24.9 4.42 2.638.042.43.08 2.6.08 4.7 0 3.4.385 4.073 3 5.25 1.7.765 3.282 2.217 3.65 3.35.35 1.067 1.33 3.05 2.1 4.25 1.16 1.8 1.82 2.05 3.3 1.25 1.542-.833 2.12-.5 3.45 2 1.333 2.5 1.92 2.833 3.5 2 1.045-.55 2.17-1.9 2.5-3 .34-1.133 1.9-2.678 3.6-3.565 3.12-1.628 3.41-3.335 1.443-8.535-.44-1.16.01-1.906 1.41-2.35 1.1-.35 2.05-1.3 2.05-2.05 0-2.63.15-3 2.49-6.1 1.353-1.8 2.26-4.01 2.06-5.05-.196-1.028-.62-3.85-.956-6.35-.885-6.6-3.28-17.677-4.15-19.2-.404-.714 2.44 1.9 6.32 5.8 8.25 8.29 17.14 15.64 34.24 28.29 15.1 11.173 11.8 8.618 35 27.087 10.7 8.518 25.14 19.99 32 25.423 6.9 5.465 13.26 10.617 14.2 11.5.9.847 2.31 2.084 3 2.63 2.47 1.956 16.3 13.814 23.8 20.408 28.9 25.41 52.26 54.018 59.65 73.062.97 2.5 2.17 4.79 2.7 5.15.52.355 6.75.708 13.75.778 12 .12 15.79-.66 12.7-2.615-2.75-1.74-15.175-15.913-30.88-35.213-31.28-38.442-61.22-64.575-135.92-118.655-9.1-6.588-16.945-12.28-17.5-12.695-.56-.42-3.2-2.422-6-4.55-2.8-2.128-7.175-5.274-9.95-7.15-4.3-2.91-4.7-3.448-3.05-4.095 4.1-1.606 5.5-1.06 5.5 2.145 0 3.1 0 3.1 2.45 1.5s2.45-1.6 3.53 2.4c1.915 7.077 3.88 2.5 4.17-9.7.09-3.7.65-6.614 1.35-7.06 1.17-.74.505-7.04-1.893-17.94-.7-3.2-.7-3.2 2.35-2.3 2.98.88 3.07.8 3.8-3.3l.75-4.2.5 4.5c.47 4.2.72 4.52 3.75 4.8 2.6.24 3.42-.14 4.1-1.9l.85-2.2 1.45 2.1c1.04 1.5 1.87 1.843 2.9 1.2.78-.483 2.4-.668 3.5-.4 1.17.286 3.1-.336 4.5-1.45l2.45-1.95-2.25-2.4c-1.22-1.3-2.25-2.675-2.25-3 0-.742 4.9-.39 9.7.698 2.89.654 3.18.452 4.3-2.948.86-2.6.9-4.484.16-6.55-1.18-3.272-.45-3.717 3.05-1.86 1.93 1.023 1.974.91 1.3-3.29-.388-2.4-1.28-5.583-2-7.1-1.23-2.6-1.19-2.69.7-1.667 3.123 1.693-4.656-8.483-13.21-17.283-4.088-4.2-9.81-9.223-12.59-11.05-4.3-2.825-4.98-3.68-4.32-5.45.92-2.5 2.92-3.935 2.92-2.1 0 .706 1.42 2.9 3.1 4.8l3.1 3.5-.6-3.5c-.33-1.94-2.168-6.8-4.11-10.9-4.15-8.746-12.69-17.598-22.49-23.31l-6.5-3.79 3.5-.15c1.9-.08 4.23-.22 5.1-.3.87-.08 2.7-.855 4-1.688 4.1-2.63 6.1-3.015 8.3-1.606 1.2.768 2.83 1.623 3.8 1.994 1.43.546 1.55.25.76-1.85-1.97-5.234-1.06-5.324 7.14-.706 4.4 2.478 8.25 4.258 8.55 3.956.3-.302-.646-2.6-2.1-5.1-1.458-2.5-2.4-4.55-2.1-4.55.302 0 2.9 1.5 5.8 3.35s6.82 4.11 8.75 5.05c3.5 1.7 3.5 1.7-1-2.4l-4.5-4.1 5.3 3.296c6.22 3.866 7 4.34 13.5 8.173 4.423 2.61 5.3 2.78 11.2 2.18 3.5-.36 7.6-.99 9.05-1.4 2.564-.73 2.45-.9-3.65-5.44-19.29-14.35-52-22.66-75.9-19.29-19.7 2.78-47.326 10.1-57.2 15.17-3.6 1.84-4.74 1.73-2-.2 2.6-1.83 2.752-3.1.653-5.4-1.437-1.57-1.157-1.84 3.643-3.43 7.1-2.35 9.9-4.36 9.9-7.08 0-1.58 1.1-2.99 3.5-4.5l3.5-2.2-5.2-6.8 2.35-.1c1.3-.06 3.242-.01 4.35.1 1.9.19 1.915.11.345-1.5-2.265-2.33-11.35-5.34-15.55-5.16-3.4.15-3.49.06-2.95-3.1.44-2.6.21-3.26-1.15-3.3-.94-.03-3.5-.21-5.7-.4-2.2-.2-5.19-.06-6.65.3l-.018.031zm17.15 62.4c0 .424-1.15.75-2.65.75-2.6 0-2.614-.038-.8-2 1.39-1.5 2.05-1.687 2.65-.75.45.7.8 1.58.8 2zm-77 1.75c0 .6-.36 1-.9 1-.505 0-1.6.262-2.5.6-1 .375-1.6 0-1.6-1 0-1.024.9-1.6 2.5-1.6 1.4 0 2.5.44 2.5 1zm99.065 1.1c.866 1.6.838 2.005-.114 1.7-.66-.212-1.37-1.2-1.5-2.1-.34-2.25.27-2.1 1.62.4h-.006zm-105.573-.1c.366.6.29 1.046-.19 1.114-6.7.957-8.124.58-4-1.06 3-1.195 3.492-1.2 4.19-.054zm-7.49 2c0 .537-.95 1-2.05 1-1.1 0-1.773-.463-1.45-1 .33-.552 1.25-1 2.05-1 .8 0 1.45.448 1.45 1zm128 1.6c0 .747-.7 1.4-1.5 1.4-1.65 0-1.725-.2-.89-2.4.687-1.812 2.39-1.1 2.39 1zm-135.3 0c-.324.323-1.2.37-1.9.1-.822-.316-.6-.537.6-.6 1-.053 1.615.184 1.3.5zm101 2c-.324.323-1.2.37-1.9.1-.822-.316-.6-.537.6-.6 1-.053 1.615.184 1.3.5zm-4.2 9.413c14.2 6.86 26.822 13.964 26.1 14.687-.4.4-39.2-19-40.4-20.2-1.7-1.7 3.6.344 14.3 5.513zm61-.213c-1.094 1.093-2.577-1.5-1.89-3.3.63-1.643.763-1.6 1.54.5.48 1.3.632 2.517.35 2.8zm6.5 2.25c0 .57-.4.95-1 .95-.582 0-1-.65-1-1.55s.418-1.298 1-.95c.6.36 1 .98 1 1.55zm-37.45 14.75c-.31.336-1.1.05-1.8-.65-.973-.972-.85-1.106.55-.6 1 .36 1.555.917 1.25 1.25zm-29.05 11.7c0 4.1-1.02 4.52-1.95.8-.426-1.7-.2-2.894.65-3.45l1.3-.85v3.5zm-11.1 5.65l-.8 2.35-.71-2.5c-1.28-4.5-1.077-5.586.71-3.8 1.088 1.09 1.344 2.35.8 3.95zm20.324-1.45c-.13 7.7 1.043 9.617 2.82 4.6l.955-2.7 1.9 2.9c1.31 2 2.29 6.5 3.15 14.5.91 8.4 2.11 13.738 4.35 19.35 1.72 4.3 3.1 8.373 3.1 9.15 0 1.8 2.9 4.692 4 4 .43-.265 1.95-.078 3.25.4 1.99.73 2.48 1.7 2.6 5.1.09 2.3.48 4.743.87 5.4 2.36 3.93-14.77-12.8-21.91-21.4-9.04-10.9-20.39-27.527-20-29.3.32-1.43.98-1 3.21 2.1 4.4 6.1 5.28 6.2 4.46.5-1.02-7.1-1.26-8.248-1.93-9.3-.34-.533.07-1 .87-1 .82 0 2.77-1.6 4.28-3.5 3.41-4.3 4.11-4.438 4.05-.8h-.025zm50.475.005c1.5 1.444 2.8 3.252 2.8 3.895 0 .655 1.75 1.495 3.85 1.85 3.1.523 4.13 1.273 5.29 3.85 1.44 3.2 1.87 3.387 5.07 2.18 1.53-.578 1.8-.08 1.8 3.32 0 2.2.3 4.833.65 5.85.37 1.03-2.42-1.25-6.3-5.15-3.87-3.9-9.47-9.303-12.65-12.2-3.1-2.828-5.7-5.474-5.7-5.8 0-1.4 2.6-.298 5.2 2.205h-.01zM92.45 163.06c0 .84-.625.4-1.422-1-1.878-3.3-1.883-4.892-.007-2.4.76 1 1.43 2.61 1.43 3.4h-.001zm154.1-1.5c0 .8-.186 1.5-.4 1.5-.212 0-.656-.7-.95-1.5-.292-.8-.106-1.5.4-1.5.508 0 .95.7.95 1.5zm-159.5 10.25c-.63 1.575-.774 1.55-1.45-.25-.424-1.133-1.052-3.3-1.45-5l-.7-3 2.15 3.25c1.324 2 1.882 3.923 1.45 5zm-2.1 3.4c-.4.657-1.5-.95-2.566-3.75-2.476-6.5-2.36-6.75.74-1.6 1.383 2.3 2.21 4.72 1.827 5.35h-.001zm74.03 13.45c1.034 4.1-.63 5.167-2.024 1.3-1.625-4.5-1.625-4.933-.005-4.325.79.294 1.68 1.625 2.03 3.025h-.001zm92.27 3.6c-.315.82-.536.6-.6-.6-.052-1 .185-1.616.5-1.3.324.323.37 1.2.1 1.9z"/>
  </g>
</svg>
